<svg width="580" height="400" xmlns="http://www.w3.org/2000/svg">
 <!-- Created with SVG Editor - http://github.com/mzalive/SVG Editor/ -->

 <g>
  <title>background</title>
  <rect fill="#fff" id="canvas_background" height="402" width="582" y="-1" x="-1"/>
  <g display="none" overflow="visible" y="0" x="0" height="100%" width="100%" id="canvasGrid">
   <rect fill="url(#gridpattern)" stroke-width="0" y="0" x="0" height="100%" width="100%"/>
  </g>
 </g>
 <g>
  <title>Layer 1</title>
  <g stroke="null" id="svg_11">
   <g id="svg_4" fill="#000000" transform="matrix(0.23421520731812004,0,0,-0.2327971132168438,-8506.743143521999,-5246.951502806059) ">
    <path stroke-dasharray="2,2" stroke="null" id="svg_5" d="m37440.367188,-22698.506653c-136,-29 -255,-93 -352,-190c-185,-183 -256,-419 -202,-670c17,-75 60,-172 107,-240c25,-36 45,-71 45,-77c0,-7 2,-11 5,-9c2,3 35,-22 73,-54c263,-220 609,-236 886,-41c129,91 239,253 279,411c26,99 23,256 -5,357c-55,198 -196,368 -377,455c-38,18 -71,35 -74,38c-3,3 -12,6 -20,7c-8,0 -48,8 -88,17c-93,20 -164,19 -277,-4zm320,-45c223,-60 401,-230 471,-450c113,-356 -84,-738 -440,-850c-246,-79 -518,-10 -696,175c-71,74 -115,148 -153,257c-27,79 -31,101 -31,208c-1,99 3,133 23,195c70,223 241,400 364,376c37,-8 84,-41 92,-66c4,-11 11,-20 17,-20c12,0 2,66 -18,124c-8,21 -12,41 -10,43c2,2 34,10 72,18c83,17 224,13 309,-10z"/>
    <path stroke-dasharray="2,2" stroke="null" id="svg_6" d="m37688.367188,-22883.506653c-51,-26 -133,-98 -133,-117c0,-7 4,-7 13,-1c30,23 103,43 161,44c67,1 102,-12 148,-54c15,-14 30,-22 32,-18c8,12 -41,122 -61,137c-51,41 -91,43 -160,9z"/>
    <path stroke-dasharray="2,2" stroke="null" id="svg_7" d="m37184.367188,-23008.506653c-45,-47 -69,-118 -69,-201c0,-98 37,-159 95,-159c44,0 79,30 109,93c67,139 34,307 -61,307c-29,0 -44,-8 -74,-40zm96,14c28,-11 46,-62 47,-135c0,-57 -5,-79 -28,-126c-63,-125 -137,-119 -158,13c-13,73 29,193 80,233c29,23 34,24 59,15z"/>
    <path stroke-dasharray="2,2" stroke="null" id="svg_8" d="m37250.367188,-23092.506653c-12,-8 -16,-19 -11,-31c4,-11 0,-25 -11,-37c-16,-18 -16,-22 -2,-46c8,-15 23,-28 34,-30c46,-9 76,106 37,141c-22,20 -23,21 -47,3z"/>
    <path stroke-dasharray="2,2" stroke="null" id="svg_9" d="m37708.367188,-23088.506653c-62,-14 -146,-65 -214,-128c-75,-69 -96,-106 -26,-47c53,46 158,96 212,103c77,8 125,-36 113,-103c-8,-38 7,-30 27,15c27,60 24,119 -9,147c-28,24 -48,26 -103,13z"/>
    <path stroke-dasharray="2,2" stroke="null" id="svg_10" d="m37941.367188,-23294.506653c-199,-116 -359,-164 -566,-171c-114,-4 -149,-2 -223,16c-49,12 -93,21 -98,21c-13,0 0,-54 31,-136c54,-143 183,-308 297,-381c232,-148 389,-42 574,389c25,60 49,105 53,101c4,-4 4,0 1,8c-3,9 8,56 25,106c31,94 35,114 23,112c-5,-1 -57,-30 -117,-65zm-116,-459c0,-9 -31,-56 -78,-117c-82,-110 -174,-135 -293,-82c-33,15 -59,30 -59,33c0,14 57,61 64,54c4,-5 6,-2 4,6c-5,21 81,70 159,91c63,17 203,27 203,15z"/>
   </g>
  </g>
 </g>
</svg>