<?xml version="1.0" standalone="no"?>
<!DOCTYPE svg PUBLIC "-//W3C//DTD SVG 20010904//EN"
 "http://www.w3.org/TR/2001/REC-SVG-20010904/DTD/svg10.dtd">
<svg version="1.0" xmlns="http://www.w3.org/2000/svg"
 width="480.000000pt" height="252.000000pt" viewBox="0 0 480.000000 252.000000"
 preserveAspectRatio="xMidYMid meet">

<g transform="translate(0.000000,252.000000) scale(0.100000,-0.100000)"
fill="#000000" stroke="none">
<path d="M2255 1960 c-136 -29 -255 -93 -352 -190 -185 -183 -256 -419 -202
-670 17 -75 60 -172 107 -240 25 -36 45 -71 45 -77 0 -7 2 -11 5 -9 2 3 35
-22 73 -54 263 -220 609 -236 886 -41 129 91 239 253 279 411 26 99 23 256 -5
357 -55 198 -196 368 -377 455 -38 18 -71 35 -74 38 -3 3 -12 6 -20 7 -8 0
-48 8 -88 17 -93 20 -164 19 -277 -4z m320 -45 c223 -60 401 -230 471 -450
113 -356 -84 -738 -440 -850 -246 -79 -518 -10 -696 175 -71 74 -115 148 -153
257 -27 79 -31 101 -31 208 -1 99 3 133 23 195 70 223 241 400 364 376 37 -8
84 -41 92 -66 4 -11 11 -20 17 -20 12 0 2 66 -18 124 -8 21 -12 41 -10 43 2 2
34 10 72 18 83 17 224 13 309 -10z"/>
<path d="M2503 1775 c-51 -26 -133 -98 -133 -117 0 -7 4 -7 13 -1 30 23 103
43 161 44 67 1 102 -12 148 -54 15 -14 30 -22 32 -18 8 12 -41 122 -61 137
-51 41 -91 43 -160 9z"/>
<path d="M1999 1650 c-45 -47 -69 -118 -69 -201 0 -98 37 -159 95 -159 44 0
79 30 109 93 67 139 34 307 -61 307 -29 0 -44 -8 -74 -40z m96 14 c28 -11 46
-62 47 -135 0 -57 -5 -79 -28 -126 -63 -125 -137 -119 -158 13 -13 73 29 193
80 233 29 23 34 24 59 15z"/>
<path d="M2065 1566 c-12 -8 -16 -19 -11 -31 4 -11 0 -25 -11 -37 -16 -18 -16
-22 -2 -46 8 -15 23 -28 34 -30 46 -9 76 106 37 141 -22 20 -23 21 -47 3z"/>
<path d="M2523 1570 c-62 -14 -146 -65 -214 -128 -75 -69 -96 -106 -26 -47 53
46 158 96 212 103 77 8 125 -36 113 -103 -8 -38 7 -30 27 15 27 60 24 119 -9
147 -28 24 -48 26 -103 13z"/>
<path d="M2756 1364 c-199 -116 -359 -164 -566 -171 -114 -4 -149 -2 -223 16
-49 12 -93 21 -98 21 -13 0 0 -54 31 -136 54 -143 183 -308 297 -381 232 -148
389 -42 574 389 25 60 49 105 53 101 4 -4 4 0 1 8 -3 9 8 56 25 106 31 94 35
114 23 112 -5 -1 -57 -30 -117 -65z m-116 -459 c0 -9 -31 -56 -78 -117 -82
-110 -174 -135 -293 -82 -33 15 -59 30 -59 33 0 14 57 61 64 54 4 -5 6 -2 4 6
-5 21 81 70 159 91 63 17 203 27 203 15z"/>
</g>
</svg>
