<?xml version="1.0" standalone="no"?>
<!DOCTYPE svg PUBLIC "-//W3C//DTD SVG 20010904//EN"
 "http://www.w3.org/TR/2001/REC-SVG-20010904/DTD/svg10.dtd">
<svg version="1.0" xmlns="http://www.w3.org/2000/svg"
 width="366.000000pt" height="366.000000pt" viewBox="0 0 366.000000 366.000000"
 preserveAspectRatio="xMidYMid meet">
<metadata>
Created by potrace 1.14, written by Peter Selinger 2001-2017
</metadata>
<g transform="translate(0.000000,366.000000) scale(0.100000,-0.100000)"
fill="#000000" stroke="none">
<path d="M0 1830 l0 -1800 1554 0 1554 0 59 64 c114 125 195 297 217 459 11
82 14 92 15 50 1 -56 -18 -161 -44 -237 -28 -82 -112 -214 -184 -288 l-45 -48
267 0 267 0 0 1800 0 1800 -499 0 c-495 0 -500 0 -496 -20 6 -33 15 -42 30
-30 9 8 14 8 17 0 2 -7 34 -13 78 -15 41 -1 86 -7 100 -13 14 -5 36 -7 50 -5
38 7 55 11 55 13 0 9 178 31 213 27 60 -7 66 -10 90 -44 12 -18 28 -33 34 -33
6 0 21 -12 33 -26 30 -35 39 -125 22 -223 -12 -68 -16 -76 -43 -88 -40 -17
-170 -16 -280 2 -119 19 -145 11 -312 -92 -70 -44 -163 -99 -207 -123 -152
-82 -190 -103 -260 -145 -76 -45 -181 -100 -260 -135 -27 -12 -104 -47 -170
-77 -66 -31 -130 -60 -141 -65 -12 -6 -55 -37 -95 -70 -276 -226 -578 -383
-693 -361 -29 6 -36 47 -37 205 0 80 5 118 20 161 30 86 63 139 99 160 29 17
35 18 55 4 23 -15 92 -31 182 -43 80 -11 255 -11 255 -1 0 5 7 6 16 3 12 -5
15 -2 10 9 -3 9 -2 14 2 11 4 -2 16 2 27 10 16 12 17 16 5 27 -10 9 -12 9 -6
0 4 -7 2 -13 -3 -13 -14 0 -14 10 -1 30 9 13 11 13 20 0 8 -12 10 -11 10 7 0
12 5 25 10 28 8 5 7 12 -2 23 -11 13 -11 15 4 10 10 -4 19 -1 22 8 4 10 2 12
-6 8 -8 -5 -9 -2 -5 9 4 10 2 16 -6 14 -6 -1 -13 8 -15 21 -2 12 0 22 5 21 23
-4 35 2 29 16 -3 9 0 15 8 15 7 0 19 7 26 15 7 8 23 15 36 15 28 0 74 20 74
32 0 5 11 6 25 4 14 -3 23 -1 20 5 -6 8 14 13 41 10 6 -1 23 10 38 24 15 14
31 25 36 25 6 0 20 16 32 35 13 19 27 35 32 35 5 0 15 8 23 18 10 11 12 12 8
2 -4 -10 -2 -9 8 2 8 10 16 15 20 12 3 -3 8 4 12 16 7 23 -22 100 -38 100 -5
0 -6 4 -3 9 4 5 -10 19 -29 31 -33 20 -37 21 -48 6 -7 -9 -22 -18 -35 -21 -12
-2 -26 -6 -31 -10 -5 -3 -12 -1 -16 4 -3 5 -15 8 -26 6 -16 -3 -19 0 -15 12 4
10 2 14 -8 10 -9 -4 -17 1 -21 13 -3 10 -24 27 -45 38 -22 10 -36 23 -32 27 4
4 1 6 -7 3 -15 -4 -51 25 -51 42 0 6 5 10 11 10 8 0 7 5 -2 16 -11 14 -10 18
5 29 10 8 24 11 32 8 8 -3 14 1 14 11 0 9 -4 16 -9 16 -12 0 -55 69 -48 77 3
3 2 16 -3 29 -6 15 -6 24 0 24 6 0 10 9 10 20 0 20 -7 20 -830 20 l-830 0 0
-1800z m2075 410 c100 -12 223 -45 366 -102 192 -74 340 -197 414 -342 39 -78
40 -81 40 -185 0 -98 -2 -111 -31 -172 -96 -202 -352 -351 -704 -410 -113 -19
-433 -16 -555 6 -251 44 -489 151 -627 282 -71 69 -114 135 -139 214 -65 210
41 414 288 555 120 68 251 111 483 158 84 17 292 15 465 -4z m778 -1105 c-3
-9 -8 -14 -10 -11 -3 3 -2 9 2 15 9 16 15 13 8 -4z m346 -22 c27 -26 41 -49
44 -74 4 -27 2 -36 -7 -35 -19 3 -118 87 -111 94 3 4 10 0 14 -7 5 -7 14 -12
20 -10 6 2 -3 19 -20 37 l-30 32 26 0 c16 0 40 -14 64 -37z m-2474 -13 c-3 -5
-11 -10 -16 -10 -6 0 -7 5 -4 10 3 6 11 10 16 10 6 0 7 -4 4 -10z m-40 -39
c-3 -12 0 -21 10 -25 8 -3 19 -16 24 -28 11 -30 93 -62 111 -45 10 9 11 9 4
-3 -13 -23 -95 -130 -99 -130 -3 0 -2 24 1 54 5 47 3 54 -14 58 -11 3 -25 2
-32 -2 -19 -12 -39 -76 -29 -92 13 -19 11 -26 -11 -45 -13 -12 -18 -24 -14
-40 4 -13 3 -48 0 -77 -9 -67 -44 -111 -82 -103 -28 5 -31 -5 -8 -27 11 -12
26 -14 53 -10 25 4 41 2 46 -6 6 -9 10 -9 17 1 6 10 7 6 2 -11 -3 -14 -14 -33
-24 -42 -16 -15 -20 -14 -51 18 -18 19 -40 34 -50 34 -34 0 -39 154 -8 256 23
76 100 227 133 260 27 28 29 28 21 5z"/>
<path d="M1845 2196 c-11 -8 -30 -16 -42 -16 -29 0 -196 -40 -208 -50 -5 -4
-23 -10 -40 -13 -109 -21 -259 -85 -317 -136 -20 -17 -42 -31 -50 -31 -16 0
-129 -116 -120 -124 2 -3 21 7 41 22 70 54 171 111 228 129 32 9 61 22 65 27
4 6 26 10 49 9 28 -1 46 3 53 13 7 9 36 16 84 19 40 3 94 10 120 16 100 23
152 27 227 20 42 -4 78 -4 80 -1 8 13 130 8 151 -5 22 -14 121 -14 144 0 7 4
24 -1 38 -12 15 -11 54 -34 87 -53 151 -84 285 -193 285 -232 0 -10 5 -18 10
-18 6 0 10 -7 10 -15 0 -9 7 -18 15 -21 8 -4 12 -11 9 -18 -3 -6 3 0 14 13
l20 24 6 -21 c4 -12 11 -22 15 -22 10 0 15 -35 15 -110 0 -70 -20 -119 -77
-195 l-31 -40 33 30 c18 16 46 59 64 95 28 56 32 75 32 145 0 75 -3 85 -43
160 -88 162 -213 254 -477 350 -150 54 -450 92 -490 61z m945 -436 c0 -5 -5
-10 -11 -10 -5 0 -7 5 -4 10 3 6 8 10 11 10 2 0 4 -4 4 -10z"/>
<path d="M2028 2036 c-11 -26 -5 -56 11 -56 6 0 9 18 8 40 -1 22 -3 40 -4 40
-2 0 -8 -11 -15 -24z"/>
<path d="M2260 1970 c-12 -8 -12 -10 3 -16 21 -8 35 2 21 16 -5 5 -15 6 -24 0z"/>
<path d="M2540 1905 c7 -8 17 -15 22 -15 6 0 5 7 -2 15 -7 8 -17 15 -22 15 -6
0 -5 -7 2 -15z"/>
<path d="M2290 1780 c0 -5 5 -10 11 -10 5 0 7 5 4 10 -3 6 -8 10 -11 10 -2 0
-4 -4 -4 -10z"/>
<path d="M2240 1700 c0 -5 5 -10 10 -10 6 0 10 5 10 10 0 6 -4 10 -10 10 -5 0
-10 -4 -10 -10z"/>
<path d="M2205 1669 c-4 -6 -13 -8 -21 -5 -8 3 -14 1 -14 -5 0 -6 -4 -7 -10
-4 -5 3 -10 0 -10 -9 0 -13 3 -13 30 0 27 14 49 34 36 34 -3 0 -8 -5 -11 -11z"/>
<path d="M2087 1633 c-10 -9 -44 -12 -172 -17 -60 -2 -113 -4 -117 -5 -12 -2
-9 -31 3 -31 5 0 8 -4 5 -8 -2 -4 -2 -13 2 -19 5 -8 26 -8 77 2 39 7 73 11 78
8 4 -2 10 2 13 11 4 10 15 13 40 9 22 -4 34 -2 34 6 0 6 -8 11 -17 11 -15 0
-15 2 -4 9 8 6 24 6 38 0 25 -9 73 4 73 21 0 5 -4 10 -10 10 -5 0 -10 -5 -10
-11 0 -8 -4 -9 -13 0 -8 6 -17 8 -20 4z"/>
<path d="M2710 1521 c0 -7 -3 -10 -7 -8 -5 3 -9 -7 -10 -21 l-1 -27 15 28 c8
16 12 31 9 35 -3 3 -6 0 -6 -7z"/>
<path d="M1099 1431 c-23 -19 -19 -44 6 -34 18 6 20 -18 3 -36 -11 -11 -9 -13
8 -9 16 4 20 1 17 -11 -5 -20 61 -77 101 -87 14 -3 29 -10 32 -15 3 -5 11 -9
19 -9 17 0 84 -42 85 -53 0 -5 -10 -6 -22 -3 -13 3 -7 -1 12 -10 43 -20 247
-67 263 -61 7 3 -5 8 -26 12 -60 12 -154 44 -130 44 12 1 34 -4 49 -9 23 -9
100 -18 179 -20 10 -1 24 -5 30 -10 5 -4 21 -10 35 -13 14 -2 -2 -5 -35 -7
l-60 -3 50 -7 c74 -12 283 -11 372 1 96 12 302 61 286 66 -6 2 -28 0 -47 -6
-39 -10 -51 3 -13 15 12 3 30 13 39 21 9 8 22 12 27 8 6 -3 21 1 33 9 12 9 31
16 41 16 20 0 79 61 83 84 1 7 5 24 9 36 6 19 4 22 -9 17 -9 -4 -16 -2 -16 4
0 6 -6 6 -19 0 -10 -6 -21 -8 -24 -4 -8 7 -146 -27 -153 -39 -3 -5 -15 -6 -25
-3 -11 4 -25 2 -32 -3 -14 -11 -140 -34 -207 -38 -25 -1 -70 -5 -100 -8 -137
-15 -258 -7 -454 29 -44 7 -82 13 -85 13 -3 -1 -33 11 -66 27 -33 15 -78 36
-100 46 -22 10 -53 26 -70 35 -59 33 -63 34 -86 15z m1031 -311 c0 -5 -9 -10
-21 -10 -11 0 -17 5 -14 10 3 6 13 10 21 10 8 0 14 -4 14 -10z"/>
<path d="M2560 1346 c0 -9 5 -16 10 -16 6 0 10 4 10 9 0 6 -4 13 -10 16 -5 3
-10 -1 -10 -9z"/>
<path d="M2689 1323 c-13 -16 -12 -17 4 -4 16 13 21 21 13 21 -2 0 -10 -8 -17
-17z"/>
<path d="M1230 1216 c0 -2 7 -7 16 -10 8 -3 12 -2 9 4 -6 10 -25 14 -25 6z"/>
<path d="M2440 1185 c-33 -19 -21 -19 21 0 19 8 27 14 19 14 -8 0 -26 -6 -40
-14z"/>
<path d="M1656 2861 c-4 -5 -2 -12 3 -15 5 -4 12 -2 15 3 4 5 2 12 -3 15 -5 4
-12 2 -15 -3z"/>
<path d="M1636 2832 c-3 -5 1 -9 9 -9 8 0 12 4 9 9 -3 4 -7 8 -9 8 -2 0 -6 -4
-9 -8z"/>
</g>
</svg>
