<?xml version="1.0" standalone="no"?>
<!DOCTYPE svg PUBLIC "-//W3C//DTD SVG 20010904//EN"
 "http://www.w3.org/TR/2001/REC-SVG-20010904/DTD/svg10.dtd">
<svg version="1.0" xmlns="http://www.w3.org/2000/svg"
 width="538.000000pt" height="538.000000pt" viewBox="0 0 538.000000 538.000000"
 preserveAspectRatio="xMidYMid meet">
<metadata>
Created by potrace 1.14, written by Peter Selinger 2001-2017
</metadata>
<g transform="translate(0.000000,538.000000) scale(0.100000,-0.100000)"
fill="#000000" stroke="none">
<path d="M2525 5109 c-770 -42 -1472 -447 -1913 -1106 -70 -103 -166 -281
-212 -393 -17 -41 -35 -84 -40 -95 -21 -45 -81 -268 -104 -385 -65 -325 -58
-710 18 -1040 140 -604 516 -1138 1051 -1494 125 -84 387 -214 524 -261 621
-213 1306 -178 1880 96 743 354 1259 1043 1386 1849 25 160 31 485 11 654 -64
552 -306 1055 -696 1447 -210 211 -397 346 -660 478 -380 190 -801 274 -1245
250z m376 -159 c214 -21 436 -73 621 -146 167 -66 374 -177 363 -195 -4 -5 0
-6 7 -4 18 7 224 -138 220 -154 -1 -7 2 -9 9 -6 12 8 71 -44 63 -56 -2 -4 1
-11 7 -15 8 -4 7 -9 -2 -15 -10 -6 -7 -8 8 -6 21 1 21 2 6 19 -9 10 -12 18 -7
18 11 0 205 -196 267 -271 88 -106 208 -291 201 -314 -4 -14 -3 -16 4 -7 7 10
16 2 36 -33 14 -26 23 -51 20 -56 -3 -5 -1 -9 4 -9 14 0 74 -131 67 -147 -2
-8 -1 -12 4 -9 13 9 79 -177 122 -344 88 -347 89 -747 3 -1080 -37 -142 -95
-311 -104 -305 -4 3 -6 -3 -3 -13 6 -25 -135 -304 -149 -295 -6 3 -8 1 -4 -5
7 -12 -63 -134 -73 -127 -4 2 -8 -1 -8 -8 0 -7 -15 -34 -32 -60 -29 -42 -35
-46 -49 -35 -15 11 -15 11 -4 -3 10 -14 5 -25 -35 -76 -115 -143 -399 -403
-424 -387 -7 4 -9 3 -6 -3 8 -13 -40 -46 -54 -38 -5 4 -8 1 -7 -6 2 -6 -37
-36 -86 -67 -80 -48 -92 -53 -110 -42 -19 12 -20 11 -8 -3 11 -13 10 -17 -7
-27 -12 -6 -21 -7 -21 -3 0 4 -4 3 -8 -3 -9 -15 -152 -86 -152 -77 0 5 -4 3
-8 -2 -11 -16 -149 -68 -160 -61 -6 3 -12 2 -14 -3 -7 -22 -329 -98 -369 -88
-11 3 -17 2 -14 -3 6 -10 -82 -19 -265 -26 -159 -7 -316 3 -485 32 -124 20
-386 95 -378 107 3 6 1 7 -4 4 -14 -9 -74 13 -67 24 3 5 -1 6 -9 3 -32 -12
-497 248 -497 277 0 5 -3 8 -8 6 -13 -4 -132 94 -132 109 0 8 -5 12 -10 9 -13
-8 -206 184 -284 283 -32 41 -54 77 -50 84 4 6 3 8 -3 5 -10 -6 -80 82 -75 96
1 4 -3 7 -8 7 -6 0 -10 5 -10 11 0 5 6 7 13 3 7 -4 9 -3 4 2 -5 5 -14 9 -20 9
-7 0 -11 8 -11 18 1 9 -2 14 -7 12 -11 -8 -31 33 -23 47 4 6 3 8 -3 5 -13 -8
-46 50 -37 65 4 6 3 8 -3 5 -9 -6 -61 94 -108 208 -21 48 -105 305 -103 314 1
3 -2 13 -5 21 -23 58 -57 305 -58 428 -1 64 -4 88 -9 72 -6 -19 -8 -10 -9 35
0 35 3 55 8 47 4 -8 11 43 14 120 6 135 20 229 55 379 22 91 79 267 91 284 5
5 11 23 15 38 4 15 11 25 16 22 5 -3 7 0 4 8 -13 35 185 377 314 542 80 102
331 348 349 341 8 -3 11 -2 8 3 -3 5 21 30 54 55 58 45 78 56 66 37 -3 -5 -1
-12 4 -16 6 -3 8 3 6 14 -3 15 12 30 60 61 35 23 69 39 75 35 6 -4 9 -1 8 5
-4 15 194 120 322 170 326 130 725 185 1081 150z"/>
<path d="M2628 4943 c34 -2 90 -2 125 0 34 2 6 3 -63 3 -69 0 -97 -1 -62 -3z"/>
<path d="M2438 4933 c12 -2 30 -2 40 0 9 3 -1 5 -23 4 -22 0 -30 -2 -17 -4z"/>
<path d="M2878 4933 c12 -2 30 -2 40 0 9 3 -1 5 -23 4 -22 0 -30 -2 -17 -4z"/>
<path d="M2343 4923 c9 -2 25 -2 35 0 9 3 1 5 -18 5 -19 0 -27 -2 -17 -5z"/>
<path d="M2983 4923 c9 -2 23 -2 30 0 6 3 -1 5 -18 5 -16 0 -22 -2 -12 -5z"/>
<path d="M2288 4913 c7 -3 16 -2 19 1 4 3 -2 6 -13 5 -11 0 -14 -3 -6 -6z"/>
<path d="M3048 4913 c6 -2 18 -2 25 0 6 3 1 5 -13 5 -14 0 -19 -2 -12 -5z"/>
<path d="M2218 4903 c6 -2 18 -2 25 0 6 3 1 5 -13 5 -14 0 -19 -2 -12 -5z"/>
<path d="M3108 4903 c6 -2 18 -2 25 0 6 3 1 5 -13 5 -14 0 -19 -2 -12 -5z"/>
<path d="M2178 4893 c7 -3 16 -2 19 1 4 3 -2 6 -13 5 -11 0 -14 -3 -6 -6z"/>
<path d="M2480 4880 c-121 -11 -253 -34 -376 -65 -53 -14 -101 -22 -107 -18
-6 4 -7 1 -2 -7 6 -10 3 -12 -13 -8 -12 4 -22 3 -22 -2 0 -7 -142 -61 -167
-62 -7 -1 -13 -5 -13 -10 0 -4 -7 -8 -15 -8 -8 0 -15 -5 -15 -10 0 -6 -6 -10
-12 -8 -7 1 -25 -6 -40 -16 -15 -10 -32 -15 -37 -12 -5 4 -14 -2 -20 -11 -6
-10 -11 -13 -11 -8 0 6 -3 6 -8 0 -4 -6 -29 -23 -55 -39 -41 -23 -51 -26 -65
-14 -15 12 -16 11 -4 -4 11 -14 10 -18 -8 -28 -11 -6 -26 -8 -32 -4 -6 4 -8 3
-4 -4 8 -13 -60 -56 -74 -47 -6 4 -10 3 -9 -2 4 -21 -3 -31 -28 -43 -16 -7
-32 -13 -36 -11 -5 1 -6 -3 -3 -7 9 -14 -31 -45 -46 -36 -7 4 -10 4 -6 -1 4
-4 -12 -24 -35 -44 -151 -128 -319 -322 -424 -489 -30 -48 -58 -88 -64 -88 -5
-1 -13 -2 -19 -3 -5 0 -10 -6 -10 -12 0 -8 5 -8 15 1 22 18 20 12 -32 -86 -26
-49 -66 -136 -89 -194 -24 -58 -46 -104 -51 -103 -4 1 -10 -1 -13 -4 -3 -4 1
-3 9 2 11 6 13 3 9 -11 -86 -295 -103 -409 -102 -709 0 -267 8 -344 60 -550
43 -175 74 -256 170 -448 35 -71 61 -133 58 -139 -4 -6 -3 -8 3 -5 6 4 34 -30
62 -74 101 -154 230 -304 378 -438 45 -41 79 -79 76 -84 -3 -6 -1 -7 5 -4 5 4
48 -21 94 -55 46 -35 95 -71 108 -81 17 -12 19 -16 7 -13 -11 4 -16 2 -12 -5
4 -6 13 -8 21 -5 19 7 146 -63 137 -76 -3 -6 -1 -8 5 -5 15 10 43 -3 35 -16
-3 -5 -2 -7 4 -4 5 3 73 -20 150 -53 295 -125 538 -172 878 -172 303 1 551 46
802 148 46 18 91 31 101 28 13 -5 14 -4 4 4 -11 7 -6 12 18 21 18 6 37 8 43 4
5 -3 7 -1 4 4 -8 12 20 26 34 17 5 -3 8 0 7 7 -2 6 3 14 11 17 9 3 11 0 7 -9
-4 -8 -2 -7 6 2 7 9 18 14 25 12 6 -2 15 1 19 8 5 8 2 10 -7 5 -23 -11 10 11
104 69 49 31 93 52 99 49 6 -4 8 -2 5 3 -4 6 9 23 29 38 29 23 38 25 46 14 7
-11 8 -11 6 3 -2 10 26 41 73 81 67 57 77 63 88 48 10 -14 10 -13 2 3 -7 16 4
32 67 95 82 84 165 183 232 278 30 43 48 60 59 56 11 -3 12 -2 4 4 -10 7 3 38
52 123 36 63 65 118 65 123 0 4 5 5 12 1 6 -4 8 -3 5 4 -6 9 5 41 50 142 9 19
17 38 18 43 2 4 4 9 5 12 1 3 4 10 5 15 1 6 4 12 5 15 1 3 3 8 5 13 1 4 4 14
7 22 70 195 110 452 111 700 0 197 -13 322 -50 490 -46 209 -177 536 -265 662
-11 16 -16 33 -12 39 4 7 3 9 -3 6 -6 -4 -26 16 -44 46 -40 62 -78 111 -185
237 -45 53 -79 102 -77 110 3 11 2 11 -4 3 -6 -9 -27 5 -72 47 -35 32 -77 69
-94 82 -17 13 -49 38 -71 57 -66 55 -216 150 -343 216 -13 7 -19 16 -15 20 4
5 2 5 -4 2 -7 -4 -38 7 -70 23 -33 16 -65 30 -72 30 -7 0 -11 4 -8 9 3 5 0 9
-7 8 -34 -1 -48 4 -41 15 4 6 3 8 -3 5 -6 -4 -37 2 -68 13 -91 31 -289 77
-406 94 -131 20 -393 27 -519 16z m615 -169 c19 -11 31 -26 33 -44 4 -35 -17
-43 -57 -23 -59 31 -136 12 -159 -39 -34 -73 9 -155 81 -155 29 0 35 4 40 26
3 20 -1 27 -20 35 -13 5 -29 9 -34 9 -15 0 -10 48 7 58 21 12 135 -8 141 -24
8 -22 -18 -152 -33 -165 -24 -20 -98 -22 -156 -5 -69 20 -123 74 -133 134 -14
86 39 178 120 207 48 18 126 12 170 -14z m-740 -153 c44 -174 43 -176 -21
-185 -37 -5 -42 -2 -84 43 -25 27 -60 67 -77 88 -18 22 -35 38 -37 35 -3 -2 7
-48 21 -102 15 -53 24 -99 21 -102 -3 -3 -21 -8 -41 -12 l-35 -5 -21 68 c-11
38 -30 109 -42 158 l-22 89 22 19 c52 42 94 17 197 -115 20 -26 39 -46 41 -44
2 2 -9 50 -24 106 -29 114 -27 124 32 119 l30 -3 40 -157z m1033 81 c120 -40
160 -133 88 -205 -19 -19 -42 -34 -51 -34 -11 0 -15 -5 -12 -14 33 -86 32
-126 -3 -126 -41 0 -58 18 -71 77 -21 99 -45 109 -72 32 -17 -47 -20 -50 -45
-44 -32 8 -52 23 -52 39 0 12 94 269 105 286 10 15 45 12 113 -11z m-1480
-111 c82 -50 112 -177 60 -255 -54 -81 -180 -108 -256 -55 -39 28 -82 114 -82
164 0 131 163 216 278 146z m1870 -74 c71 -35 102 -82 102 -152 0 -174 -180
-255 -308 -138 -75 68 -68 189 15 268 57 54 114 61 191 22z m-2193 -215 c99
-97 113 -114 104 -131 -6 -10 -22 -24 -36 -31 -25 -11 -29 -8 -97 66 -39 42
-74 77 -78 77 -4 0 6 -32 22 -71 l29 -70 -24 -25 c-13 -13 -29 -24 -36 -24 -6
0 -38 16 -71 36 -32 20 -62 34 -65 31 -3 -4 24 -42 61 -86 36 -43 66 -84 66
-89 0 -12 -48 -52 -61 -52 -9 0 -186 231 -195 255 -8 20 49 75 77 75 12 0 51
-18 86 -41 36 -22 67 -38 70 -35 3 3 -8 37 -26 76 -17 39 -31 76 -31 84 0 18
56 66 77 66 8 0 66 -50 128 -111z m1275 62 c138 -15 224 -32 209 -42 -9 -6 -2
-7 19 -3 21 4 32 3 32 -5 0 -7 4 -9 10 -6 12 7 90 -15 90 -26 0 -4 10 -5 22
-1 14 3 19 1 14 -6 -4 -7 -2 -10 6 -7 31 12 335 -146 322 -167 -4 -7 -2 -8 4
-4 15 9 115 -59 214 -147 94 -82 219 -225 215 -247 -1 -8 3 -15 10 -15 26 0
161 -225 147 -246 -4 -7 -3 -9 3 -6 14 9 55 -81 48 -107 -4 -14 -3 -17 3 -8
12 17 62 -132 93 -278 20 -90 23 -135 24 -320 0 -186 -3 -229 -22 -320 -32
-150 -72 -272 -85 -264 -7 4 -8 3 -4 -5 4 -6 4 -21 1 -32 -6 -17 -9 -19 -17
-8 -7 11 -8 9 -4 -5 8 -25 -3 -58 -16 -50 -7 4 -8 2 -4 -4 10 -16 -63 -154
-77 -145 -6 3 -7 1 -3 -6 12 -20 -134 -229 -156 -223 -5 1 -7 -2 -4 -7 4 -5
-28 -44 -70 -86 -91 -89 -174 -160 -174 -148 0 4 -5 0 -11 -9 -22 -39 -339
-225 -360 -212 -4 2 -10 0 -14 -6 -3 -5 -15 -10 -26 -10 -10 0 -19 -4 -19 -8
0 -19 -260 -87 -292 -76 -13 4 -18 2 -14 -4 18 -30 -397 -35 -559 -7 -134 23
-267 62 -282 82 -7 10 -13 12 -13 5 0 -7 -27 1 -67 19 -145 67 -248 126 -245
139 1 6 -2 9 -7 6 -27 -17 -331 240 -315 265 4 7 3 9 -3 6 -24 -15 -223 248
-207 274 4 8 3 9 -4 5 -13 -8 -96 149 -87 164 4 6 2 10 -4 10 -20 0 -105 267
-122 385 -18 117 -19 135 -19 270 -1 180 13 283 62 450 81 280 210 501 415
715 l62 64 23 -19 c13 -12 17 -13 10 -4 -6 9 -8 20 -4 24 4 5 0 5 -8 1 -38
-19 95 92 175 145 100 67 296 167 335 171 14 2 28 7 31 11 14 19 270 77 399
90 73 8 238 6 320 -2z m1212 -58 c32 -28 21 -55 -48 -123 -77 -76 -95 -106
-83 -137 8 -22 37 -43 60 -43 6 0 53 41 103 90 l92 90 28 -29 c35 -37 32 -42
-77 -148 -55 -54 -93 -83 -108 -84 -51 -2 -75 4 -111 30 -66 47 -95 128 -67
184 14 27 170 187 183 187 5 0 18 -7 28 -17z m-2844 -330 c73 -42 132 -82 132
-88 0 -21 -31 -55 -51 -55 -11 0 -54 23 -95 51 -41 28 -79 49 -85 47 -5 -2 11
-29 36 -60 38 -49 43 -61 35 -82 -15 -41 -36 -45 -107 -24 -35 11 -69 18 -74
16 -5 -2 29 -32 76 -67 47 -34 85 -68 85 -75 0 -20 -30 -56 -47 -56 -22 0
-253 187 -253 206 0 20 29 63 51 75 17 9 87 -7 162 -36 28 -12 20 9 -33 76
-27 35 -50 69 -50 76 0 19 50 73 69 73 9 0 76 -35 149 -77z m3142 5 c36 -39
35 -62 -6 -135 -20 -38 -46 -81 -57 -96 -10 -16 -17 -30 -15 -33 3 -2 42 20
87 51 45 30 86 55 91 55 15 0 43 -48 37 -65 -4 -8 -65 -54 -138 -102 l-131
-88 -29 33 c-16 18 -29 40 -29 50 0 10 25 60 55 111 31 52 54 96 51 98 -2 2
-43 -22 -91 -53 l-87 -58 -19 24 c-23 31 -24 43 -1 63 33 30 237 166 249 166
7 1 22 -9 33 -21z m222 -375 c42 -48 74 -153 64 -208 -16 -82 -133 -157 -220
-141 -55 11 -112 68 -136 138 -23 66 -25 101 -7 116 14 12 257 111 273 112 6
0 18 -8 26 -17z m-3611 -20 c97 -50 123 -145 67 -246 -36 -64 -68 -82 -147
-82 -57 0 -74 4 -109 27 -53 35 -73 67 -79 122 -6 50 9 103 39 142 55 70 137
83 229 37z m-271 -368 c9 -11 8 -19 -4 -37 -25 -35 -21 -100 8 -127 30 -28
106 -40 141 -21 34 18 58 74 50 116 -6 33 -5 34 25 34 37 0 55 -35 46 -93 -17
-104 -74 -157 -170 -157 -102 0 -173 49 -192 133 -20 93 51 207 96 152z m3990
-11 c76 -45 91 -219 20 -219 -23 0 -25 4 -26 53 -2 95 -56 114 -67 23 -8 -69
-32 -110 -73 -127 -42 -18 -74 -10 -107 24 -65 71 -61 230 6 220 20 -3 22 -8
19 -59 -3 -43 1 -60 16 -79 29 -36 48 -21 61 51 12 69 32 106 64 119 33 13 56
12 87 -6z m-3855 -709 l23 -41 -124 -3 -125 -2 12 23 c6 13 34 63 62 111 l50
88 39 -68 c22 -37 50 -86 63 -108z m3830 85 c27 -47 54 -95 62 -107 l15 -22
-126 2 -125 2 31 55 c36 66 93 159 94 156 1 0 23 -39 49 -86z m-3747 -426 c50
-33 69 -136 26 -142 -17 -2 -21 2 -21 27 0 65 -72 94 -127 50 -30 -24 -34 -63
-10 -98 12 -17 13 -26 5 -34 -28 -28 -71 33 -71 100 0 94 115 151 198 97z
m3622 22 c0 -2 -7 -20 -15 -39 -21 -51 -1 -58 37 -13 33 40 66 47 93 19 37
-37 -6 -156 -50 -139 -15 5 -15 8 -1 28 17 24 22 68 7 68 -5 0 -21 -16 -35
-35 -32 -42 -78 -48 -97 -14 -13 25 -6 93 11 114 11 13 50 22 50 11z m-62
-189 c7 -8 7 -18 2 -27 -16 -24 -12 -30 27 -47 36 -14 38 -14 51 6 16 23 38
28 45 9 7 -21 -13 -68 -33 -78 -29 -16 -42 -13 -134 30 -82 37 -86 41 -76 61
9 17 18 20 41 15 25 -5 31 -1 41 19 13 28 21 31 36 12z m-3503 -73 c68 -74 23
-174 -79 -174 -38 0 -81 40 -92 87 -8 32 19 86 49 101 42 20 96 14 122 -14z
m3425 -74 c0 -5 -4 -20 -10 -34 -9 -24 -6 -28 43 -56 28 -16 56 -31 61 -33 16
-5 -5 -47 -24 -47 -10 0 -44 15 -76 33 -49 27 -59 38 -62 62 -3 38 32 97 53
89 8 -4 15 -10 15 -14z m-3261 -85 c30 -15 58 -66 46 -84 -11 -19 -31 -12 -43
14 -7 14 -20 25 -31 25 -27 0 -33 -13 -16 -36 19 -25 19 -43 -1 -51 -9 -3 -21
3 -30 16 -19 27 -24 27 -80 -9 -49 -31 -74 -28 -74 9 0 21 152 121 198 130 2
1 16 -6 31 -14z m3212 -91 c10 -13 8 -24 -14 -69 -14 -30 -23 -57 -18 -59 12
-8 59 31 66 54 8 26 35 26 35 0 0 -62 -66 -117 -126 -106 -39 8 -84 57 -84 92
0 32 25 80 47 93 27 16 79 13 94 -5z m-3113 -48 c32 -17 57 -58 49 -80 -9 -23
-22 -20 -41 9 -16 25 -50 34 -60 16 -3 -5 4 -20 15 -35 34 -43 4 -64 -37 -25
l-23 21 -44 -36 c-24 -20 -49 -36 -55 -36 -15 0 -32 34 -24 47 13 20 164 133
179 133 8 0 26 -6 41 -14z m2928 -121 c4 -9 -4 -23 -20 -36 -26 -20 -35 -49
-16 -49 5 0 24 9 42 20 18 11 39 20 47 20 24 0 51 -32 51 -61 0 -31 -57 -99
-84 -99 -21 0 -35 32 -17 38 18 6 51 40 51 52 0 16 -26 12 -65 -11 -33 -20
-37 -20 -60 -5 -37 25 -34 69 9 112 37 37 54 42 62 19z m-2866 -60 c16 -8 34
-24 40 -34 16 -31 12 -86 -8 -105 -18 -15 -21 -14 -65 19 -50 38 -67 43 -67
20 0 -17 38 -59 60 -67 18 -6 5 -38 -16 -38 -23 0 -82 62 -90 95 -13 52 44
123 99 125 10 0 31 -7 47 -15z m2730 -98 c0 -7 -13 -21 -30 -30 -50 -30 -32
-59 19 -32 56 28 101 10 101 -42 0 -30 -61 -93 -90 -93 -28 0 -36 21 -14 37
46 33 56 45 46 55 -6 6 -20 4 -40 -6 -37 -19 -73 -21 -90 -4 -22 22 -14 68 17
99 30 30 81 40 81 16z m-2560 -62 c56 -29 77 -89 45 -131 -14 -19 -15 -18 -65
9 -56 30 -70 33 -70 14 0 -16 37 -51 64 -61 15 -5 16 -9 6 -21 -20 -24 -40
-18 -81 24 -46 46 -52 92 -18 135 36 45 73 55 119 31z m2418 -81 c32 -22 27
-47 -18 -88 -22 -20 -40 -38 -40 -41 0 -16 55 -1 76 20 29 29 44 32 44 9 0
-43 -53 -84 -109 -84 -43 0 -90 45 -98 92 -5 33 -2 41 30 73 39 39 78 46 115
19z m-2088 -89 c11 -13 10 -22 -3 -51 -21 -44 -22 -41 13 -59 41 -21 48 -19
67 20 18 37 42 45 62 21 10 -11 2 -35 -39 -115 -49 -99 -60 -110 -90 -91 -15
9 -14 13 15 82 5 12 -1 21 -24 32 -43 23 -48 21 -71 -24 -18 -35 -23 -39 -40
-30 -10 5 -22 14 -25 20 -8 14 93 210 109 210 7 0 19 -7 26 -15z m1880 -23
c15 -16 34 -47 40 -69 17 -55 -7 -104 -65 -138 -74 -44 -87 -38 -144 67 -56
104 -55 109 19 149 55 29 116 25 150 -9z m-1567 -166 c34 -31 42 -66 27 -111
-16 -49 -49 -69 -103 -62 -47 6 -97 52 -97 87 0 32 26 87 47 99 34 20 98 13
126 -13z m1071 9 c4 -11 -3 -19 -19 -25 -36 -14 -31 -33 14 -58 48 -27 51 -27
51 2 0 13 6 26 13 29 24 9 40 -10 42 -47 1 -20 11 -46 21 -57 18 -20 18 -21 1
-34 -10 -7 -26 -11 -36 -8 -10 2 -33 -5 -52 -16 -86 -53 -176 7 -134 89 12 22
13 35 5 49 -15 30 -12 48 12 71 26 24 73 27 82 5z m-929 -49 c17 -12 18 -19 8
-72 -12 -64 -5 -84 29 -84 21 0 22 3 38 83 9 44 15 57 29 57 35 0 40 -21 25
-94 -8 -38 -19 -75 -25 -83 -15 -17 -71 -17 -114 2 -45 18 -58 51 -45 113 23
105 21 103 55 78z m326 -46 c10 -6 19 -18 19 -26 0 -12 -8 -14 -45 -8 -60 8
-61 -14 -2 -41 35 -17 43 -25 45 -52 2 -23 -3 -35 -20 -47 -43 -31 -138 -12
-138 26 0 17 5 19 33 13 17 -4 34 -7 37 -7 45 -1 38 19 -15 42 -41 18 -45 22
-45 54 0 23 6 39 18 45 22 14 88 14 113 1z m218 -5 c33 -17 56 -68 38 -83 -7
-6 -33 -13 -60 -17 -84 -13 -70 -50 16 -40 36 4 47 3 47 -8 0 -52 -129 -55
-165 -4 -24 34 -20 109 8 134 39 36 72 41 116 18z"/>
<path d="M3342 4566 c-5 -6 -14 -26 -20 -44 -11 -31 -10 -33 15 -43 39 -14 72
-3 79 27 10 40 -51 90 -74 60z"/>
<path d="M1765 4468 c-50 -27 -57 -67 -24 -136 29 -58 74 -80 120 -57 43 23
54 59 34 112 -17 45 -66 93 -93 93 -9 0 -26 -6 -37 -12z"/>
<path d="M3673 4381 c-53 -33 -81 -106 -58 -151 16 -31 33 -40 76 -40 35 0 74
34 95 85 34 82 -39 151 -113 106z"/>
<path d="M2657 4293 c18 -2 50 -2 70 0 21 2 7 4 -32 4 -38 0 -55 -2 -38 -4z"/>
<path d="M2498 4283 c6 -2 18 -2 25 0 6 3 1 5 -13 5 -14 0 -19 -2 -12 -5z"/>
<path d="M2863 4283 c9 -2 25 -2 35 0 9 3 1 5 -18 5 -19 0 -27 -2 -17 -5z"/>
<path d="M2423 4273 c9 -2 23 -2 30 0 6 3 -1 5 -18 5 -16 0 -22 -2 -12 -5z"/>
<path d="M2938 4273 c6 -2 18 -2 25 0 6 3 1 5 -13 5 -14 0 -19 -2 -12 -5z"/>
<path d="M2488 4263 c7 -3 16 -2 19 1 4 3 -2 6 -13 5 -11 0 -14 -3 -6 -6z"/>
<path d="M2535 4229 c-44 -4 -132 -19 -195 -34 -63 -15 -123 -28 -132 -28 -10
-1 -18 -5 -18 -10 0 -4 -4 -6 -9 -2 -5 3 -12 1 -16 -5 -4 -6 -10 -8 -15 -5 -5
3 -11 1 -14 -4 -4 -5 -30 -17 -59 -27 -75 -24 -231 -116 -357 -210 -78 -58
-230 -215 -297 -306 -48 -64 -60 -75 -73 -65 -13 10 -13 10 -2 -5 11 -14 9
-23 -16 -62 -15 -26 -32 -43 -37 -39 -4 5 -5 3 -1 -4 9 -16 -14 -64 -27 -56
-6 3 -7 1 -4 -4 4 -6 -14 -62 -39 -125 -83 -206 -114 -365 -114 -583 0 -210
28 -359 103 -550 22 -55 40 -110 41 -122 0 -11 4 -19 7 -17 4 2 15 -13 25 -34
9 -20 35 -66 56 -100 33 -54 37 -66 26 -80 -11 -15 -11 -15 3 -4 13 10 19 10
29 -2 6 -9 8 -21 4 -27 -4 -7 -3 -9 3 -6 6 4 33 -22 61 -56 58 -71 185 -196
254 -248 26 -20 44 -40 40 -44 -4 -5 -2 -5 4 -2 15 8 56 -22 48 -35 -4 -7 -2
-8 4 -4 16 10 54 -12 46 -26 -4 -7 -3 -8 4 -4 12 7 72 -19 72 -33 0 -4 6 -8
13 -8 6 0 50 -18 97 -41 185 -88 404 -133 645 -133 262 0 460 44 683 154 70
34 133 61 139 60 7 0 10 3 8 8 -3 4 5 13 17 20 13 6 47 29 76 51 29 21 57 36
62 33 6 -4 10 -3 8 2 -1 4 54 64 123 133 135 136 196 215 275 357 28 51 54 89
58 86 4 -4 4 -1 1 8 -3 8 5 40 18 70 23 51 74 209 83 254 2 11 9 45 16 75 8
34 13 133 13 265 0 180 -4 225 -23 311 -29 134 -64 237 -123 363 -27 57 -46
107 -43 112 3 5 1 8 -4 7 -12 -4 -103 132 -96 143 3 5 1 8 -3 7 -5 -2 -34 26
-64 62 -29 36 -76 87 -104 114 -27 27 -49 53 -47 58 1 5 -2 7 -8 3 -5 -3 -13
1 -16 9 -3 9 -10 16 -15 16 -5 0 -20 10 -34 22 -20 18 -23 24 -12 37 11 14 10
14 -5 2 -15 -11 -22 -10 -50 15 -18 15 -32 31 -30 36 1 5 -2 7 -7 3 -6 -3 -24
1 -41 10 -27 14 -30 19 -19 33 11 14 11 15 -1 5 -11 -10 -22 -8 -54 10 -23 12
-43 25 -46 29 -3 4 -41 21 -85 39 -44 17 -82 35 -83 40 -2 5 -8 7 -13 3 -5 -3
-9 -1 -9 4 0 5 -13 9 -29 10 -17 0 -38 5 -48 10 -10 5 -48 15 -85 23 -38 7
-68 17 -68 21 0 5 -3 7 -8 4 -4 -2 -57 2 -117 10 -119 15 -225 16 -350 3z
m-51 -505 c9 -3 14 -10 11 -14 -3 -5 0 -12 6 -16 8 -5 9 -3 4 6 -5 8 -3 11 6
8 8 -2 30 -35 49 -72 31 -62 35 -77 35 -150 0 -85 -12 -120 -61 -179 -29 -35
-30 -51 -4 -100 11 -20 20 -55 20 -77 l0 -40 66 0 c59 0 65 2 59 18 -43 102
-46 193 -10 270 17 36 29 51 37 46 7 -4 10 -4 6 1 -4 4 0 20 9 35 15 26 14 30
-11 83 -30 65 -31 77 -10 123 35 72 133 85 187 24 16 -18 26 -38 23 -46 -3 -8
-2 -13 3 -10 9 6 20 -18 41 -88 22 -71 -6 -180 -61 -239 -25 -27 -24 -71 2
-113 13 -21 19 -46 17 -66 l-3 -33 59 -3 c32 -2 64 2 69 7 8 8 8 11 0 11 -18
0 -43 89 -43 155 0 47 6 74 28 116 15 30 32 53 39 52 7 -2 10 3 7 11 -3 8 -1
17 4 20 11 7 3 46 -24 117 -17 44 -17 47 3 85 16 31 26 38 44 36 17 -1 20 1
11 7 -18 11 7 21 53 21 112 0 192 -232 126 -363 -14 -26 -33 -55 -43 -64 -24
-21 -23 -60 2 -101 11 -18 20 -50 20 -72 l0 -40 224 0 c221 0 261 -3 250 -21
-3 -5 2 -6 10 -3 10 4 23 -6 36 -28 20 -31 21 -42 16 -173 -5 -133 -24 -251
-62 -387 -9 -32 -20 -55 -25 -52 -5 3 -6 -1 -3 -9 8 -21 -63 -170 -77 -161 -8
5 -9 3 -5 -5 18 -29 -188 -272 -216 -255 -6 4 -8 3 -4 -4 7 -11 -147 -112
-172 -112 -7 0 -12 -6 -10 -12 3 -7 27 -16 54 -20 65 -9 104 -50 104 -109 0
-24 -4 -38 -10 -34 -6 3 -7 -1 -4 -9 8 -21 -41 -64 -80 -71 -17 -3 -246 -5
-508 -3 l-478 3 -31 31 c-38 39 -50 101 -25 138 18 29 41 43 81 50 16 3 32 9
37 14 10 10 -20 36 -47 40 -32 6 -145 85 -209 147 l-59 57 -21 -25 c-67 -80
-281 -108 -436 -58 -65 21 -123 55 -113 65 4 4 -1 4 -10 0 -21 -8 -70 33 -60
49 3 6 1 7 -6 3 -15 -10 -43 13 -34 27 3 5 1 7 -4 4 -20 -12 -120 143 -107
165 4 6 3 8 -3 5 -19 -12 -46 104 -46 203 0 104 20 180 70 271 34 64 144 175
189 191 19 6 34 15 34 20 0 4 36 19 81 33 95 30 202 34 237 9 21 -15 25 -15
42 1 12 11 27 15 42 10 18 -5 20 -4 8 4 -11 8 46 11 198 11 116 0 212 4 212 9
0 5 -7 28 -16 52 -21 57 -21 173 -1 220 9 20 28 50 42 67 20 24 25 40 23 70
-2 22 -6 38 -9 36 -11 -6 -29 46 -29 82 0 50 53 104 103 104 20 0 42 -3 51 -6z"/>
<path d="M2418 3713 c7 -3 16 -2 19 1 4 3 -2 6 -13 5 -11 0 -14 -3 -6 -6z"/>
<path d="M2793 3713 c9 -2 23 -2 30 0 6 3 -1 5 -18 5 -16 0 -22 -2 -12 -5z"/>
<path d="M2770 3688 c0 -5 -5 -6 -10 -3 -6 4 -9 1 -8 -7 2 -7 -2 -12 -8 -11
-18 3 -15 -66 6 -106 11 -22 20 -54 20 -71 0 -37 -17 -73 -31 -65 -5 4 -9 3
-8 -2 1 -4 -7 -28 -19 -53 -26 -54 -28 -146 -6 -205 9 -22 16 -48 17 -57 1 -9
5 -14 9 -12 4 3 8 1 8 -4 0 -5 13 -15 28 -21 38 -16 76 -1 91 38 12 26 11 34
-8 64 -11 18 -23 52 -27 75 -6 38 -3 47 25 83 62 76 76 153 46 239 -8 23 -12
47 -8 53 3 6 1 7 -5 3 -7 -4 -12 -2 -12 4 0 18 -54 65 -77 66 -13 0 -23 -3
-23 -8z"/>
<path d="M3108 3669 c-33 -33 -35 -56 -8 -109 11 -22 20 -53 20 -70 0 -40 -17
-73 -33 -64 -7 4 -9 4 -5 0 3 -4 -4 -28 -18 -53 -63 -119 6 -331 100 -307 14
3 30 12 37 20 12 15 20 96 8 88 -11 -7 -27 28 -34 72 -5 34 -1 47 34 97 24 35
42 75 46 100 6 44 3 138 -4 131 -2 -2 -13 15 -23 38 -10 22 -27 49 -38 58 -11
9 -18 19 -15 21 2 3 -6 5 -18 5 -12 0 -34 -12 -49 -27z"/>
<path d="M2402 3674 c-28 -20 -29 -71 -2 -124 27 -54 25 -80 -11 -130 -17 -24
-37 -58 -45 -76 -18 -44 -18 -126 1 -171 9 -20 13 -43 11 -50 -3 -7 -2 -12 2
-11 4 2 19 -10 34 -25 32 -32 56 -34 92 -6 31 24 33 55 7 101 -40 70 -37 90
22 176 37 52 46 96 36 163 -21 133 -83 198 -147 153z"/>
<path d="M3101 3494 c0 -11 3 -14 6 -6 3 7 2 16 -1 19 -3 4 -6 -2 -5 -13z"/>
<path d="M2860 3081 c0 -6 4 -13 10 -16 6 -3 7 1 4 9 -7 18 -14 21 -14 7z"/>
<path d="M2188 3073 c12 -2 32 -2 45 0 12 2 2 4 -23 4 -25 0 -35 -2 -22 -4z"/>
<path d="M2278 3073 c7 -3 16 -2 19 1 4 3 -2 6 -13 5 -11 0 -14 -3 -6 -6z"/>
<path d="M3628 3073 c12 -2 32 -2 45 0 12 2 2 4 -23 4 -25 0 -35 -2 -22 -4z"/>
<path d="M1641 3039 c6 -3 -17 -12 -50 -20 -33 -7 -58 -16 -56 -19 2 -3 -10
-12 -26 -19 -17 -7 -44 -26 -62 -42 -17 -16 -37 -29 -44 -29 -7 0 -13 -6 -13
-13 0 -19 -35 -49 -45 -40 -4 5 -5 3 -1 -4 4 -7 -5 -29 -18 -50 -91 -137 -97
-344 -16 -499 21 -40 35 -76 32 -80 -4 -4 -2 -4 5 -1 6 4 20 -3 30 -16 25 -32
101 -90 148 -115 105 -55 259 -69 374 -33 96 30 129 70 100 122 -19 36 -55 42
-116 19 -76 -29 -190 -27 -264 3 -73 30 -132 78 -173 141 -117 180 -46 429
149 521 53 25 179 50 197 39 5 -3 8 -2 7 3 -2 4 3 20 11 35 15 32 7 74 -18 87
-19 10 -167 20 -151 10z"/>
<path d="M1890 3030 c-25 -19 -25 -21 -25 -167 0 -171 7 -293 17 -287 3 2 9
-15 13 -38 4 -23 18 -73 31 -111 13 -38 21 -75 17 -81 -3 -6 -2 -8 2 -3 5 4
26 -26 48 -65 91 -168 205 -277 370 -355 33 -16 46 -27 41 -35 -6 -9 -3 -9 9
1 14 11 20 11 34 0 9 -8 18 -13 20 -11 1 1 4 2 6 1 1 0 9 -2 17 -4 8 -2 29 -6
45 -10 89 -20 143 -25 270 -26 77 0 149 2 160 5 114 28 158 36 168 30 7 -4 9
-3 4 1 -10 11 93 55 112 47 10 -4 12 -1 6 8 -6 10 -4 12 8 7 9 -3 16 -2 14 2
-1 5 26 27 60 50 149 101 275 275 344 478 34 101 69 287 70 376 0 84 12 143
28 139 7 -1 10 2 6 8 -5 8 -11 8 -20 0 -10 -8 -14 -5 -19 13 -3 13 -17 29 -31
35 -20 9 -252 12 -913 12 -857 -1 -888 -1 -912 -20z m1368 -217 c156 -128 171
-143 105 -107 -29 16 -55 25 -59 22 -3 -4 -1 -21 5 -39 6 -18 10 -34 8 -36 -2
-1 -37 24 -78 56 l-74 60 -3 -40 c-2 -21 -5 -39 -8 -39 -3 0 -18 10 -35 22
l-30 23 -92 -49 c-57 -31 -86 -42 -76 -30 82 101 212 254 215 254 3 0 57 -43
122 -97z m-573 -87 c71 -59 70 -58 57 -83 -8 -13 -15 -14 -41 -5 -30 11 -31
10 -31 -19 0 -33 -14 -38 -30 -9 -14 26 -25 25 -83 -5 l-48 -24 6 31 c7 28 5
30 -16 23 -13 -4 -36 -14 -51 -21 -61 -31 -44 -9 58 76 60 50 109 90 110 90 1
0 32 -24 69 -54z"/>
<path d="M1673 2830 c-23 -5 -51 -14 -63 -20 -11 -6 -25 -8 -30 -5 -6 4 -9 3
-8 -2 2 -4 -18 -30 -44 -56 -190 -194 -51 -506 222 -500 57 1 128 24 142 46
13 21 9 55 -23 183 -16 68 -28 128 -25 133 4 5 -11 7 -36 3 -24 -3 -57 -6 -75
-6 -17 -1 -29 -3 -27 -5 2 -3 -9 -10 -24 -17 -17 -7 -37 -28 -49 -53 -12 -23
-15 -37 -8 -31 10 8 15 6 20 -9 8 -26 41 -44 66 -38 22 6 24 3 34 -41 l7 -34
-35 6 c-73 12 -122 56 -137 122 -22 95 64 194 167 194 50 0 72 82 31 120 -23
21 -38 23 -105 10z"/>
<path d="M1401 2524 c0 -11 3 -14 6 -6 3 7 2 16 -1 19 -3 4 -6 -2 -5 -13z"/>
<path d="M2303 1791 c-11 -11 -23 -18 -25 -16 -2 2 -3 -12 -2 -32 0 -25 8 -42
23 -55 22 -17 52 -18 505 -18 536 0 526 -1 526 64 0 18 -6 41 -14 52 -14 18
-33 19 -503 22 -474 2 -489 2 -510 -17z"/>
<path d="M2378 1633 c7 -3 16 -2 19 1 4 3 -2 6 -13 5 -11 0 -14 -3 -6 -6z"/>
<path d="M3216 4192 c-2 -4 4 -8 14 -8 10 0 16 4 14 8 -3 4 -9 8 -14 8 -5 0
-11 -4 -14 -8z"/>
<path d="M2165 4180 c-3 -5 -13 -6 -22 -3 -12 5 -14 3 -8 -7 6 -10 4 -12 -9
-7 -10 4 -15 3 -11 -3 3 -6 10 -10 14 -10 11 0 59 39 49 40 -4 0 -9 -4 -13
-10z"/>
<path d="M1750 3970 c-9 -6 -10 -10 -3 -10 6 0 15 5 18 10 8 12 4 12 -15 0z"/>
<path d="M1625 3899 c-4 -6 -5 -12 -2 -15 2 -3 7 2 10 11 7 17 1 20 -8 4z"/>
<path d="M3788 3833 c7 -3 16 -2 19 1 4 3 -2 6 -13 5 -11 0 -14 -3 -6 -6z"/>
<path d="M4311 2904 c0 -11 3 -14 6 -6 3 7 2 16 -1 19 -3 4 -6 -2 -5 -13z"/>
<path d="M1102 2845 c0 -16 2 -22 5 -12 2 9 2 23 0 30 -3 6 -5 -1 -5 -18z"/>
<path d="M4292 2770 c0 -14 2 -19 5 -12 2 6 2 18 0 25 -3 6 -5 1 -5 -13z"/>
<path d="M1093 2725 c0 -22 2 -30 4 -17 2 12 2 30 0 40 -3 9 -5 -1 -4 -23z"/>
<path d="M4332 2660 c0 -19 2 -27 5 -17 2 9 2 25 0 35 -3 9 -5 1 -5 -18z"/>
<path d="M1093 2595 c0 -27 2 -38 4 -22 2 15 2 37 0 50 -2 12 -4 0 -4 -28z"/>
<path d="M4301 2334 c0 -11 3 -14 6 -6 3 7 2 16 -1 19 -3 4 -6 -2 -5 -13z"/>
<path d="M4270 2271 c0 -6 4 -13 10 -16 6 -3 7 1 4 9 -7 18 -14 21 -14 7z"/>
<path d="M1141 2244 c0 -11 3 -14 6 -6 3 7 2 16 -1 19 -3 4 -6 -2 -5 -13z"/>
<path d="M1145 2209 c-4 -6 -5 -12 -2 -15 2 -3 7 2 10 11 7 17 1 20 -8 4z"/>
<path d="M1275 1869 c-4 -6 -5 -12 -2 -15 2 -3 7 2 10 11 7 17 1 20 -8 4z"/>
<path d="M2578 1063 c7 -3 16 -2 19 1 4 3 -2 6 -13 5 -11 0 -14 -3 -6 -6z"/>
<path d="M2793 1063 c9 -2 25 -2 35 0 9 3 1 5 -18 5 -19 0 -27 -2 -17 -5z"/>
<path d="M4456 3421 c-49 -20 -91 -41 -93 -47 -6 -18 41 -77 68 -85 35 -9 99
14 127 46 26 31 29 75 5 103 -18 20 -19 20 -107 -17z"/>
<path d="M810 3435 c-45 -47 -23 -112 47 -141 49 -21 90 -17 118 11 46 45 29
105 -38 136 -59 26 -98 24 -127 -6z"/>
<path d="M881 1801 c-25 -25 -26 -35 -5 -56 28 -28 98 9 92 49 -4 30 -60 34
-87 7z"/>
<path d="M4270 1551 c-10 -20 -4 -51 11 -51 12 0 40 56 32 64 -12 12 -32 6
-43 -13z"/>
<path d="M1250 1331 c0 -16 58 -52 65 -41 11 18 -15 50 -40 50 -14 0 -25 -4
-25 -9z"/>
<path d="M1425 1171 c-6 -11 32 -41 52 -41 16 0 17 22 1 38 -14 14 -44 16 -53
3z"/>
<path d="M3812 1088 c-14 -14 -16 -48 -4 -48 10 0 52 43 52 53 0 12 -35 8 -48
-5z"/>
<path d="M3564 986 c-19 -14 -18 -16 9 -71 31 -63 49 -75 77 -50 28 25 26 76
-5 109 -27 29 -52 33 -81 12z"/>
<path d="M2020 799 c-24 -58 32 -96 65 -45 25 38 13 76 -24 76 -23 0 -31 -7
-41 -31z"/>
<path d="M3144 725 c-11 -29 4 -46 38 -43 42 4 45 20 9 41 -36 21 -40 21 -47
2z"/>
<path d="M2736 724 c-26 -25 -19 -36 17 -29 46 10 52 16 32 32 -24 17 -30 16
-49 -3z"/>
<path d="M3208 4883 c7 -3 16 -2 19 1 4 3 -2 6 -13 5 -11 0 -14 -3 -6 -6z"/>
<path d="M2088 4873 c7 -3 16 -2 19 1 4 3 -2 6 -13 5 -11 0 -14 -3 -6 -6z"/>
<path d="M2020 4850 c13 -8 12 -10 -4 -10 -11 0 -17 -3 -13 -6 3 -3 15 -3 28
1 17 6 19 9 8 16 -8 5 -18 9 -24 9 -5 0 -3 -5 5 -10z"/>
<path d="M1855 4780 c3 -5 8 -10 11 -10 2 0 4 5 4 10 0 6 -5 10 -11 10 -5 0
-7 -4 -4 -10z"/>
<path d="M1675 4719 c-4 -6 -5 -12 -2 -15 2 -3 7 2 10 11 7 17 1 20 -8 4z"/>
<path d="M1517 4609 c7 -7 15 -10 18 -7 3 3 -2 9 -12 12 -14 6 -15 5 -6 -5z"/>
<path d="M1259 4468 c-6 -21 -5 -38 1 -38 5 0 8 9 7 20 -1 17 -5 26 -8 18z"/>
<path d="M4127 4387 c-3 -7 3 -13 14 -13 13 0 15 3 7 13 -6 7 -12 13 -13 13
-2 0 -5 -6 -8 -13z"/>
<path d="M1179 4373 c-13 -16 -12 -17 4 -4 9 7 17 15 17 17 0 8 -8 3 -21 -13z"/>
<path d="M4236 4297 c3 -10 9 -15 12 -12 3 3 0 11 -7 18 -10 9 -11 8 -5 -6z"/>
<path d="M1012 4245 c3 -3 16 -8 28 -10 12 -2 20 -1 16 2 -4 4 -16 8 -28 10
-12 2 -19 1 -16 -2z"/>
<path d="M650 3701 c0 -6 4 -13 10 -16 6 -3 7 1 4 9 -7 18 -14 21 -14 7z"/>
<path d="M471 3144 c0 -11 3 -14 6 -6 3 7 2 16 -1 19 -3 4 -6 -2 -5 -13z"/>
<path d="M4889 2131 c9 -6 11 -16 7 -27 -6 -15 -4 -16 5 -7 14 14 5 43 -13 43
-10 0 -9 -3 1 -9z"/>
<path d="M4871 2027 c-13 -21 -12 -21 5 -5 10 10 16 20 13 22 -3 3 -11 -5 -18
-17z"/>
<path d="M4845 1930 c-3 -5 -1 -10 4 -10 6 0 11 5 11 10 0 6 -2 10 -4 10 -3 0
-8 -4 -11 -10z"/>
<path d="M566 1847 c3 -10 9 -15 12 -12 3 3 0 11 -7 18 -10 9 -11 8 -5 -6z"/>
<path d="M4786 1777 c3 -10 9 -15 12 -12 3 3 0 11 -7 18 -10 9 -11 8 -5 -6z"/>
<path d="M694 1566 c0 -13 3 -22 5 -20 2 2 11 -2 19 -9 14 -11 9 -1 -24 51 -1
2 -1 -8 0 -22z"/>
<path d="M870 1281 c0 -6 4 -13 10 -16 6 -3 7 1 4 9 -7 18 -14 21 -14 7z"/>
<path d="M1126 1012 c-3 -5 1 -9 9 -9 8 0 12 4 9 9 -3 4 -7 8 -9 8 -2 0 -6 -4
-9 -8z"/>
<path d="M4204 964 c-18 -14 -18 -15 4 -4 12 6 22 13 22 15 0 8 -5 6 -26 -11z"/>
<path d="M1210 946 c0 -2 8 -10 18 -17 15 -13 16 -12 3 4 -13 16 -21 21 -21
13z"/>
<path d="M1740 559 c0 -5 5 -7 10 -4 6 3 10 8 10 11 0 2 -4 4 -10 4 -5 0 -10
-5 -10 -11z"/>
<path d="M3218 473 c7 -3 16 -2 19 1 4 3 -2 6 -13 5 -11 0 -14 -3 -6 -6z"/>
<path d="M2263 443 c9 -2 23 -2 30 0 6 3 -1 5 -18 5 -16 0 -22 -2 -12 -5z"/>
<path d="M3078 443 c7 -3 16 -2 19 1 4 3 -2 6 -13 5 -11 0 -14 -3 -6 -6z"/>
<path d="M2328 433 c6 -2 18 -2 25 0 6 3 1 5 -13 5 -14 0 -19 -2 -12 -5z"/>
<path d="M2398 423 c6 -2 18 -2 25 0 6 3 1 5 -13 5 -14 0 -19 -2 -12 -5z"/>
<path d="M2928 423 c7 -3 16 -2 19 1 4 3 -2 6 -13 5 -11 0 -14 -3 -6 -6z"/>
<path d="M2493 413 c15 -2 37 -2 50 0 12 2 0 4 -28 4 -27 0 -38 -2 -22 -4z"/>
<path d="M2818 413 c12 -2 30 -2 40 0 9 3 -1 5 -23 4 -22 0 -30 -2 -17 -4z"/>
<path d="M2928 403 c7 -3 16 -2 19 1 4 3 -2 6 -13 5 -11 0 -14 -3 -6 -6z"/>
</g>
</svg>
